<?xml version="1.0" standalone="no"?>
<!DOCTYPE svg PUBLIC "-//W3C//DTD SVG 20010904//EN"
 "http://www.w3.org/TR/2001/REC-SVG-20010904/DTD/svg10.dtd">
<svg version="1.0" xmlns="http://www.w3.org/2000/svg"
 width="2048.000000pt" height="2048.000000pt" viewBox="0 0 2048.000000 2048.000000"
 preserveAspectRatio="xMidYMid meet">

<g transform="translate(0.000000,2048.000000) scale(0.100000,-0.100000)"
fill="#000000" stroke="none">
<path d="M9870 18319 c-405 -30 -810 -105 -1190 -221 -1348 -410 -2490 -1367
-3109 -2605 -119 -239 -189 -407 -271 -653 -301 -897 -338 -1847 -109 -2760
79 -316 175 -590 309 -880 54 -117 188 -375 210 -405 4 -5 166 -325 360 -710
194 -385 394 -781 445 -880 51 -99 280 -553 510 -1010 230 -456 439 -870 465
-920 26 -49 242 -477 480 -950 238 -473 465 -923 505 -1000 40 -77 253 -498
473 -935 220 -437 520 -1031 667 -1320 146 -289 347 -688 448 -887 100 -199
185 -359 188 -355 4 4 109 210 234 457 528 1044 707 1398 960 1900 147 292
356 706 465 920 109 215 336 665 505 1000 169 336 385 763 480 950 95 187 311
615 480 950 169 336 369 732 445 880 76 149 314 621 530 1050 216 429 431 850
478 935 357 648 560 1329 613 2059 13 185 7 680 -11 831 -58 501 -138 839
-301 1272 -583 1545 -1945 2737 -3592 3143 -305 75 -595 121 -917 145 -153 11
-593 11 -750 -1z m601 -779 c632 -33 1212 -186 1771 -466 1117 -560 1951
-1581 2258 -2769 204 -788 181 -1606 -67 -2370 -522 -1609 -1967 -2784 -3663
-2979 -1335 -154 -2644 288 -3605 1215 -715 691 -1158 1587 -1282 2589 -22
183 -25 720 -5 905 60 538 214 1054 456 1520 463 893 1240 1611 2166 2004 635
269 1296 387 1971 351z m2108 -8934 c-15 -15 -204 -133 -304 -191 -490 -281
-1060 -474 -1625 -550 -161 -22 -582 -31 -751 -16 -309 28 -560 81 -849 180
-326 111 -584 240 -907 454 -150 98 -198 139 -92 76 215 -127 549 -269 849
-362 1169 -362 2414 -243 3525 337 124 65 168 85 154 72z"/>
<path d="M9883 16955 c-643 -64 -1236 -276 -1768 -631 -811 -542 -1384 -1387
-1583 -2334 -154 -736 -78 -1506 218 -2201 301 -705 841 -1327 1505 -1731 876
-533 1930 -692 2928 -442 922 232 1712 787 2238 1574 320 479 515 1004 596
1600 14 106 18 202 18 445 0 324 -9 437 -56 685 -221 1163 -997 2162 -2084
2681 -413 197 -871 320 -1340 359 -162 13 -510 11 -672 -5z m782 -859 c560
-102 1084 -323 1503 -635 154 -114 415 -373 521 -514 207 -278 352 -583 435
-919 99 -397 119 -853 58 -1316 l-18 -133 32 -19 c33 -21 76 -77 93 -123 7
-17 11 -124 11 -270 0 -271 -4 -291 -73 -359 -62 -63 -118 -83 -227 -83 -52 0
-110 4 -127 9 l-33 9 0 -76 c0 -274 -238 -507 -585 -572 -213 -41 -479 12
-652 129 -122 83 -221 224 -248 353 -22 102 -21 1020 0 1112 41 173 183 328
381 414 226 99 535 92 750 -16 92 -47 187 -119 237 -181 56 -72 107 -182 114
-251 5 -51 8 -56 27 -51 12 3 37 9 58 12 31 5 37 11 42 38 18 95 37 314 42
486 23 692 -153 1281 -525 1760 -86 111 -271 297 -391 392 -383 305 -927 544
-1455 639 -109 19 -143 21 -360 16 -954 -23 -1665 -318 -2141 -889 -401 -481
-625 -1208 -624 -2023 1 -149 15 -424 22 -430 2 -1 15 -5 31 -9 25 -6 27 -4
27 27 0 92 67 232 152 319 150 152 355 231 598 230 184 0 341 -45 478 -136
135 -90 238 -234 262 -368 7 -36 10 -248 8 -575 -3 -475 -5 -522 -22 -568
-174 -471 -910 -600 -1306 -229 -100 93 -169 235 -170 345 l0 57 -87 -1 c-76
-1 -96 3 -148 27 -69 31 -118 74 -148 131 -20 37 -22 57 -25 268 -4 283 2 314
84 394 l55 53 -12 178 c-14 212 -7 577 16 772 166 1419 952 2290 2281 2529
362 65 842 86 1059 47z"/>
<path d="M8175 12941 c-124 -35 -240 -123 -284 -214 -39 -80 -42 -136 -39
-640 l3 -482 27 -58 c121 -258 524 -337 781 -154 70 50 108 99 137 176 19 48
20 80 20 556 0 479 -1 508 -20 562 -39 110 -145 203 -283 248 -97 31 -246 34
-342 6z"/>
<path d="M11904 12932 c-129 -45 -214 -116 -266 -221 l-23 -46 0 -535 0 -535
28 -56 c55 -112 183 -203 330 -233 94 -20 152 -20 241 -1 153 32 271 116 328
233 l33 67 0 525 0 525 -27 58 c-49 104 -170 197 -303 232 -35 9 -101 15 -160
15 -84 0 -113 -5 -181 -28z"/>
<path d="M12889 12507 l-44 -24 -2 -303 c-1 -166 1 -309 4 -316 3 -7 24 -22
47 -34 76 -36 186 -22 244 33 50 46 52 61 52 307 0 246 -3 262 -52 306 -65 60
-170 73 -249 31z"/>
<path d="M7439 12482 l-115 -24 -17 -58 c-14 -47 -17 -96 -17 -252 1 -106 5
-209 11 -229 21 -81 91 -128 192 -129 105 0 97 -29 97 360 0 313 -1 340 -17
348 -11 5 -62 -1 -134 -16z"/>
</g>
</svg>
